<svg xmlns="http://www.w3.org/2000/svg" viewBox="0 0 430 430">
  <defs>
    <style>
      .cls-1 {
        isolation: isolate;
      }

      .cls-2 {
        fill: #f9c9c0;
      }

      .cls-3 {
        fill: #b26836;
      }

      .cls-4 {
        fill: #090b2e;
      }

      .cls-5 {
        fill: #92140c;
      }

      .cls-6 {
        fill: #646e78;
      }

      .cls-7, .cls-8 {
        fill: #2ca58d;
      }

      .cls-8 {
        mix-blend-mode: multiply;
        opacity: 0.5;
      }

      .cls-9 {
        fill: #ebe6ef;
      }
    </style>
  </defs>
  <g class="cls-1">
    <g id="Warstwa_1" data-name="Warstwa 1">
      <g>
        <path class="cls-2" d="M290.69,38.75h4.58A21.74,21.74,0,0,1,317,60.49V92.76a6.5,6.5,0,0,1-6.5,6.5H290.69A21.74,21.74,0,0,1,269,77.52v-17a21.74,21.74,0,0,1,21.74-21.74Z" transform="translate(181.93 -210.76) rotate(55.1)"/>
        <path class="cls-3" d="M320.75,81.88a1.83,1.83,0,0,1-3-.06L307.8,66.29A7.68,7.68,0,0,0,297.2,64a7.68,7.68,0,0,1-10.59-2.34l-3.76-5.89a6.83,6.83,0,0,0-9.42-2.09l-1.18-1.85a2.17,2.17,0,0,1,.66-3L285.12,41a21.8,21.8,0,0,1,30,6.63l6.3,9.86A21.81,21.81,0,0,1,320.75,81.88Z"/>
        <path class="cls-4" d="M162.92,254a3.51,3.51,0,0,1-3.26-2.22l-29.93-75.83a3.5,3.5,0,0,1,6.51-2.57l29.93,75.84a3.5,3.5,0,0,1-2,4.54A3.58,3.58,0,0,1,162.92,254Z"/>
        <path class="cls-4" d="M190.3,323.31a3.51,3.51,0,0,1-3.26-2.22l-27.38-69.35a3.5,3.5,0,1,1,6.51-2.57l27.38,69.35a3.5,3.5,0,0,1-2,4.54A3.39,3.39,0,0,1,190.3,323.31Z"/>
        <path class="cls-5" d="M190,326H105.59a6.5,6.5,0,0,1-5.7-9.63l50.42-91.8a6.2,6.2,0,0,1,4.59-3.14l70.16-9.32h0l56.34-7.49a6.16,6.16,0,0,1,5.53,10.09l-92,109A6.49,6.49,0,0,1,190,326Zm-83.54-7h83.31L280.2,211.86l-56.07,7.46h0l-67.89,9Z"/>
        <path class="cls-6" d="M100.52,369.75a47.14,47.14,0,0,1-47.09-47.09,3.5,3.5,0,0,1,7,0,40.13,40.13,0,0,0,40.09,40.09,3.5,3.5,0,0,1,0,7Z"/>
        <path class="cls-6" d="M329.52,369.75a47.14,47.14,0,0,1-47.09-47.09,3.5,3.5,0,0,1,7,0,40.13,40.13,0,0,0,40.09,40.09,3.5,3.5,0,0,1,0,7Z"/>
        <path class="cls-4" d="M316.34,216.93a3.49,3.49,0,0,1-2.87-5.49c.3-.44,7-10.49,1.84-18.55-5.17,0-21.56,0-32.86,0h0a3.5,3.5,0,0,1,0-7l17.31,0h11.92c7.06,0,7.06,0,8.13,1.3,10.25,12.34-.12,27.6-.57,28.25A3.49,3.49,0,0,1,316.34,216.93Z"/>
        <path class="cls-4" d="M329.49,249.41a72.88,72.88,0,0,0-21.06,3.1l-22.69-64.26a3.5,3.5,0,1,0-6.6,2.33l22.69,64.27a73.21,73.21,0,1,0,27.66-5.44Zm0,139.5a66.25,66.25,0,0,1-25.33-127.46l22,62.38a3.51,3.51,0,0,0,3.31,2.33,3.37,3.37,0,0,0,1.16-.2,3.51,3.51,0,0,0,2.14-4.47l-22-62.37a66.25,66.25,0,1,1,18.73,129.79Z"/>
        <path class="cls-4" d="M147.63,178.13H109a3.5,3.5,0,1,1,0-7h38.67a3.5,3.5,0,0,1,0,7Z"/>
        <path class="cls-7" d="M235,101.11,250.27,157l30,39.61c18.08,11.68,30.1-7.17,30.1-7.17l-33.86-44.61-11-45.68h0a28.87,28.87,0,0,0-26-21c-.33,0-6.58-.64-14.94,3.1l-60.72,31.05h0l26.25,51.35.13-.06,54.28-27.75"/>
        <polygon class="cls-8" points="244.5 135.83 235.4 140.48 235.02 101.11 244.5 135.83"/>
        <path class="cls-4" d="M100.51,395.91a73.25,73.25,0,1,1,73.25-73.25A73.32,73.32,0,0,1,100.51,395.91Zm0-139.5a66.25,66.25,0,1,0,66.25,66.25A66.32,66.32,0,0,0,100.51,256.41Z"/>
        <path class="cls-6" d="M190.26,163.62l28,38.84a20.2,20.2,0,0,1,1.11,27.63l-29,44.84s10.34,25.75-2,31.17L149.85,273l33.45-55.13-34-49.07c-1-2.09-11.16-23.15-.16-42.08a39.87,39.87,0,0,1,14.73-14.41Z"/>
        <path class="cls-6" d="M190.26,163.62l28,38.84a20.2,20.2,0,0,1,1.11,27.63l-29,44.84s10.34,25.75-2,31.17L149.85,273l33.45-55.13-34-49.07c-1-2.09-11.16-23.15-.16-42.08a39.87,39.87,0,0,1,14.73-14.41Z"/>
        <path class="cls-9" d="M188.34,306.1,184,302.36h0L151,274c-.36-.38-.74-.76-1.12-1.12l12.1-20,28.33,22S200.67,300.69,188.34,306.1Z"/>
      </g>
    </g>
  </g>
</svg>
